<svg xmlns="http://www.w3.org/2000/svg" width="585" height="320" viewBox="0 0 585 320" version="1.1"><path d="M 263.308 25.818 C 254.533 28.937, 247.213 32.954, 250.250 32.983 C 251.569 32.996, 252 33.834, 252 36.386 C 252 38.248, 252.672 41.060, 253.494 42.636 C 254.315 44.211, 255.043 46.625, 255.110 48 C 255.201 49.869, 255.352 50.033, 255.709 48.647 C 256.092 47.162, 258.406 48.949, 267.365 57.647 C 273.513 63.616, 283.241 72.550, 288.982 77.500 C 302.042 88.761, 318 103.950, 318 105.120 C 318 107.171, 308.047 99.518, 294.004 86.669 C 279.322 73.234, 266.350 62.179, 268.650 65.060 C 270.157 66.948, 268.607 77.081, 266.644 78.180 C 265.865 78.615, 264.951 80.441, 264.612 82.236 C 264.122 84.836, 263.045 86.009, 259.317 88 C 253.793 90.951, 251.998 94.042, 248.867 106 C 245.123 120.300, 241.677 120.517, 233.928 106.939 C 232.220 103.947, 231.110 102.400, 231.460 103.500 C 249.797 161.094, 334.381 142.574, 334.222 81 C 334.157 55.606, 330.505 47.208, 313.461 33.257 C 301.312 23.313, 279.470 20.073, 263.308 25.818 M 272.338 35.103 C 263.939 37.081, 264.258 38.111, 277.004 50.206 C 309.015 80.583, 328.265 96.346, 329.488 93.185 C 330.892 89.554, 330.569 63.170, 329.103 61.803 C 327.948 60.726, 327.845 60.743, 328.508 61.905 C 329.061 62.875, 328.932 63.076, 328.088 62.554 C 327.416 62.139, 327.113 61.554, 327.414 61.253 C 330.508 58.158, 317.582 44.180, 308.604 40.913 C 305.247 39.692, 300.475 37.766, 298 36.634 C 292.853 34.280, 279.272 33.470, 272.338 35.103" stroke="none" fill="#c5d6e3" fill-rule="evenodd"/><path d="M 265.500 4.458 C 201.888 19.106, 183.474 102.486, 235.314 141.140 C 262.660 161.530, 291.054 163.415, 317.914 146.623 C 324.328 142.613, 324.328 142.613, 338.981 157.681 C 347.040 165.968, 354.594 173.054, 355.767 173.426 C 363.623 175.919, 373.638 165.662, 371.534 157.278 C 370.317 152.429, 343.188 126.148, 340.875 127.577 C 339.268 128.571, 339.976 125.265, 341.669 123.872 C 342.586 123.118, 344.628 119.800, 346.206 116.500 C 347.784 113.200, 349.932 109.150, 350.980 107.500 C 379.424 62.708, 320.580 -8.225, 265.500 4.458 M 264 25.539 C 256.324 28.208, 241 36.604, 241 38.140 C 241 38.610, 239.411 40.754, 237.468 42.904 C 234.008 46.733, 229.015 57.226, 228.985 60.730 C 228.973 62.081, 228.769 62.184, 228.124 61.166 C 227.455 60.112, 227.138 60.199, 226.606 61.583 C 226.237 62.546, 226.318 63.718, 226.786 64.186 C 227.255 64.655, 227.267 68.067, 226.814 71.769 C 221.010 119.188, 269.653 153.202, 310 129.937 C 328.167 119.462, 334.289 107.093, 334.222 81 C 334.157 55.606, 330.505 47.208, 313.461 33.257 C 301.614 23.560, 279.578 20.122, 264 25.539 M 272.338 35.103 C 263.939 37.081, 264.258 38.111, 277.004 50.206 C 309.015 80.583, 328.265 96.346, 329.488 93.185 C 330.892 89.554, 330.569 63.170, 329.103 61.803 C 327.948 60.726, 327.845 60.743, 328.508 61.905 C 329.061 62.875, 328.932 63.076, 328.088 62.554 C 327.416 62.139, 327.113 61.554, 327.414 61.253 C 330.508 58.158, 317.582 44.180, 308.604 40.913 C 305.247 39.692, 300.475 37.766, 298 36.634 C 292.853 34.280, 279.272 33.470, 272.338 35.103 M 256 49.121 C 256 51.967, 263.463 59.422, 291.916 85 C 308.039 99.493, 318 107.177, 318 105.120 C 318 103.950, 302.042 88.761, 288.982 77.500 C 283.241 72.550, 273.471 63.575, 267.272 57.555 C 257.476 48.044, 256 46.939, 256 49.121 M 308 241.472 C 308 290, 308 290, 316 290 C 324 290, 324 290, 324.004 268.750 C 324.008 244.856, 324.371 243.406, 331.450 239.031 C 344.491 230.971, 351 241.097, 351 269.442 C 351 290.081, 351 290.081, 359.250 289.790 C 372.374 289.328, 371.987 242.141, 358.751 228.905 C 350.779 220.932, 335.669 220.333, 327.860 227.680 C 324.554 230.790, 323.717 229.614, 324.584 223.079 C 327.082 204.248, 323.816 194.454, 314.750 193.588 C 308 192.944, 308 192.944, 308 241.472 M 465.939 221.979 C 454.997 223.901, 447.322 229.453, 448.950 234.270 C 451.574 242.035, 452.993 242.659, 460.024 239.146 C 466.881 235.720, 471.260 235.246, 476.366 237.380 C 485.034 241.001, 489.184 251.978, 481.250 250.295 C 453.616 244.435, 434.397 263.788, 448.616 283.158 C 455.466 292.489, 473.092 293.899, 481.707 285.805 C 484.220 283.445, 487 284.626, 487 288.055 C 487 290.471, 489.399 291.050, 495.903 290.203 C 501.198 289.514, 503.394 266.299, 500.368 243 C 498.477 228.431, 483.001 218.982, 465.939 221.979 M 15.500 224.339 C -2.450 233.012, -3.064 254.361, 14.449 260.887 C 17.227 261.923, 23.100 263.763, 27.500 264.977 C 36.735 267.525, 38.515 268.810, 37.640 272.296 C 36.022 278.744, 27.604 278.797, 14.741 272.440 C 2.834 266.556, -4.298 276.750, 6.761 283.847 C 19.461 291.996, 37.145 292.815, 45.922 285.659 C 49.801 282.496, 55.275 266.906, 53 265.500 C 52.450 265.160, 52 264.097, 52 263.137 C 52 259.279, 45.794 255.238, 33.320 250.974 C 20.002 246.423, 17.148 244.460, 18.950 241.094 C 21.734 235.892, 27.890 234.897, 35 238.500 C 41.666 241.878, 42.588 241.721, 47.586 236.353 C 57.005 226.238, 31.406 216.653, 15.500 224.339 M 78.424 224.057 C 39.501 239.032, 63.005 303.138, 102.243 289.022 C 108.130 286.904, 110.375 285.530, 117.373 279.761 C 122.219 275.765, 111.906 267.767, 106.574 271.386 C 95.935 278.605, 75 274.402, 75 265.047 C 75 264.561, 74.716 263.424, 74.369 262.519 C 73.801 261.040, 74.599 260.944, 82.297 261.569 C 89.723 262.171, 112.877 260.847, 119.750 259.427 C 121.817 259, 121.998 258.415, 121.978 252.231 C 121.908 230.838, 99.119 216.095, 78.424 224.057 M 143.677 224.376 C 133.793 227.744, 132.213 229.586, 134.889 234.616 C 138.913 242.180, 139.010 242.229, 144.495 239.452 C 154.619 234.327, 167.647 238.112, 168.295 246.367 C 168.500 248.977, 168.500 248.977, 158.500 249.389 C 142.619 250.043, 133.358 254.481, 128.638 263.700 C 119.978 280.616, 150.696 299.224, 166.010 286.338 C 169.517 283.388, 172 283.856, 172 287.469 C 172 290.049, 180.583 291.366, 183.508 289.235 C 185.446 287.822, 183.812 239.071, 181.697 235.197 C 174.929 222.799, 160.422 218.671, 143.677 224.376 M 197.149 222.719 C 195.082 223.112, 194.880 223.549, 195.478 226.333 C 195.853 228.075, 196.335 242.769, 196.550 258.987 C 196.991 292.319, 196.469 290.821, 207.168 289.438 C 212.819 288.708, 213.162 287.309, 213.435 263.850 C 213.655 244.965, 216.987 239.125, 227.654 238.930 C 234.631 238.802, 237.927 234.769, 237.985 226.285 C 238.035 218.962, 223.269 221.790, 217.008 230.303 C 215.119 232.872, 214 233.763, 214 232.697 C 214 231.764, 213.510 231, 212.912 231 C 212.203 231, 212.052 229.653, 212.477 227.134 C 213.306 222.231, 207.905 220.676, 197.149 222.719 M 263.332 223.782 C 227.352 236.695, 235.890 290.018, 274 290.400 C 285.632 290.517, 301 283.026, 301 277.238 C 301 274.755, 291.923 268.550, 290.164 269.831 C 279.335 277.718, 267.892 276.495, 260.077 266.615 C 246.379 249.297, 264.550 230.207, 285.143 240.282 C 293.123 244.186, 301 240.895, 301 233.657 C 301 226.116, 275.475 219.425, 263.332 223.782 M 402.836 223.859 C 383.337 230.302, 371.373 254.006, 380.063 268.976 C 390.661 287.234, 406.602 294.342, 424 288.566 C 429.249 286.823, 437.829 279.381, 437.955 276.462 C 438.053 274.195, 429.267 267.974, 428.046 269.445 C 423.467 274.962, 410.437 276.618, 403.518 272.563 C 379.643 258.572, 398.454 228.873, 423.399 241.174 C 429.836 244.348, 429.836 244.348, 432.321 241.395 C 433.688 239.771, 435.975 237.816, 437.403 237.052 C 440.995 235.130, 440.674 233.820, 435.750 230.304 C 424.410 222.204, 414.007 220.167, 402.836 223.859 M 540.500 223.403 C 538.850 224.131, 536.643 225.688, 535.595 226.863 C 532.597 230.226, 529.680 229.731, 530.500 226 C 531.159 223, 531.159 223, 522.020 223 C 515.184 223, 513.068 223.301, 513.621 224.196 C 514.028 224.854, 514.263 246.022, 514.144 271.237 C 513.927 317.082, 513.927 317.082, 522.214 316.791 C 530.500 316.500, 530.500 316.500, 530.209 301.250 C 529.888 284.373, 530.129 283.818, 535.934 288.109 C 548.949 297.731, 573.269 287.721, 579.045 270.365 C 588.150 243.005, 563.667 213.176, 540.500 223.403 M 80.532 238.912 C 68.521 247.060, 71.031 250, 90 250 C 107.058 250, 106.950 250.039, 104.418 244.784 C 100.891 237.464, 87.516 234.176, 80.532 238.912 M 537.830 238.966 C 525.006 245.952, 526.368 268.046, 540.055 275.028 C 554.722 282.511, 570.009 263.698, 562.006 248.013 C 557.594 239.364, 545.446 234.818, 537.830 238.966 M 151.143 261.076 C 141.569 262.958, 140.018 271.728, 148.460 276.246 C 155.397 279.959, 169 272.444, 169 264.900 C 169 260.162, 162.679 258.808, 151.143 261.076 M 464.353 262.927 C 455.752 266.833, 456.676 273.878, 466.191 276.932 C 476.146 280.127, 489.696 268.839, 483.429 262.571 C 481.136 260.279, 469.715 260.492, 464.353 262.927" stroke="none" fill="#0e1925" fill-rule="evenodd"/></svg>