<?xml version="1.0" encoding="utf-8"?>
<!-- Generator: Adobe Illustrator 28.3.0, SVG Export Plug-In . SVG Version: 6.00 Build 0)  -->
<svg version="1.1" xmlns="http://www.w3.org/2000/svg" xmlns:xlink="http://www.w3.org/1999/xlink" x="0px" y="0px"
	 viewBox="0 0 760.5 170.8" style="enable-background:new 0 0 760.5 170.8;" xml:space="preserve">
<style type="text/css">
	.st0{fill:#101A26;}
	.st1{fill:#C5D6E3;}
	.st2{fill-rule:evenodd;clip-rule:evenodd;fill:#C5D6E3;}
	.st3{fill-rule:evenodd;clip-rule:evenodd;fill:#101A26;}
	.st4{fill-rule:evenodd;clip-rule:evenodd;fill:#FFFFFF;}
</style>
<g id="Layer_2_00000035490492499992717590000014155739042798205830_">
	<g id="Layer_2-2">
		<path class="st0" d="M629.7,74c0,0.1,0,0.2,0,0.3c0.1-0.1,0.1-0.3,0-0.1c0,0.2-0.1,0.4-0.1,0.6c-0.1,0.4-0.2,0.8-0.4,1.2
			c-0.1,0.1-0.1,0.4-0.2,0.5c0.1-0.1,0.1-0.2,0,0c0,0.1-0.1,0.2-0.1,0.3c-0.2,0.4-0.4,0.8-0.7,1.1c-0.8,1.2,0.2,2.7,1.7,2.7
			c1.6,0,3.1-1,3.4-2.4l-3.7,0.4c0.1,0.2,0.2,0.4,0.3,0.5c0.3,0.6,1.1,0.9,1.7,0.9c0.8,0,1.3-0.4,1.7-0.9c-0.1,0.1-0.2,0.3-0.1,0.1
			c0.2-0.2-0.2,0.1,0,0c0.2-0.1-0.4,0.1-0.1,0c0.1,0,0.2,0,0.3-0.1l-2.3-2.7c-0.4,0.8-0.9,1.6-1.3,2.4l3.7,1.4
			c0.1-0.3,0.2-0.5,0.2-0.8c0-0.1,0.1-0.3,0.2-0.4c0.2-0.4-0.2,0.3,0-0.1c0.3-0.5,0.6-1,0.9-1.4l-3.2,0.4c-0.1-0.1-0.4-0.5-0.3-0.7
			c0,0.1,0.1,0.4,0,0.1c0-0.2,0-0.2,0,0l0.1-0.2c0,0-0.2,0.3-0.2,0.3c-0.2,0.3,0.2-0.2,0,0c-0.2,0.2-0.3,0.3-0.4,0.5
			c-0.2,0.2-0.3,0.4-0.5,0.6c-0.7,1.1-1.1,2.2-1.2,3.5c-0.1,0.9,1,1.9,2,1.8c1.2-0.1,1.9-0.8,2-1.8c0-0.4-0.1,0.3,0-0.1
			c0-0.1,0.1-0.3,0.1-0.4s0.1-0.3,0.1-0.4c0.1-0.2,0.1-0.4,0-0.1c0.1-0.3,0.3-0.5,0.4-0.7c0.1-0.1,0.2-0.2,0.3-0.3
			c0.2-0.3-0.2,0.3,0.1-0.1c0.6-0.6,1-1.3,1.2-2.1c0.1-0.9-0.1-1.7-0.8-2.4c-0.4-0.4-1.1-0.6-1.7-0.5c-0.7,0.1-1.1,0.4-1.5,0.9
			c-0.9,1.1-1.5,2.3-1.8,3.6c-0.2,0.9,0.2,1.8,1.2,2.1c0.9,0.3,2.1,0.1,2.5-0.7c0.4-0.8,0.9-1.6,1.3-2.4c0.4-0.7,0.4-1.4-0.2-2
			c-0.5-0.6-1.3-0.8-2.1-0.7c-1.1,0.1-1.9,0.8-2.5,1.5h3.5c-0.1-0.2-0.2-0.4-0.3-0.5c-0.3-0.6-1.3-1-2-0.9s-1.5,0.6-1.7,1.3
			c0,0.1-0.2,0.4,0,0c-0.2,0.3,0.3-0.3,0,0l0.2-0.1c-0.2,0.1-0.1,0.1,0.1,0c-0.4,0.1,0.4,0,0,0l1.7,2.7c1.2-1.7,1.9-3.7,2.1-5.7
			c0.1-0.9-1-1.9-2-1.8C630.5,72.3,629.8,73,629.7,74L629.7,74L629.7,74z"/>
		<path class="st1" d="M714.1,110.3c-0.2-0.1-0.5-0.4-0.6-0.7c0-0.1-0.1-0.4,0-0.1s-0.1,0,0-0.1c0,0-0.1,0.3-0.1,0.3
			c-0.1,0.4-0.3,0.8-0.4,1.2c-0.1,0.3,0.1-0.2,0,0c-0.1,0.1-0.1,0.2-0.2,0.4c-0.1,0.2-0.2,0.4-0.3,0.6c-0.2,0.4-0.5,0.8-0.7,1.2
			c-1,1.5-2.2,2.9-3.3,4.4c-0.4,0.6-0.3,1.3,0,1.8c0.9,1.6,3.2,1.2,4.3,0.1c0.9-0.9,1.7-1.8,2.6-2.7c1.7-1.8,3.4-3.5,5.1-5.3
			c0.7-0.7,0.8-1.9,0-2.6c-0.8-0.6-2.1-0.8-2.8,0c-1.4,1.5-2.8,2.9-4.2,4.4c-0.7,0.7-1.4,1.4-2.1,2.1c-0.4,0.4-0.7,0.8-1.1,1.1
			c-0.1,0.1-0.4,0.5-0.5,0.5c0.1-0.1,0.3-0.2,0.4-0.2c0.2,0,0.4,0,0.6,0l0.9,0.5l0.2,0.2v1.8c1.3-1.7,2.8-3.4,3.9-5.2
			c1.1-1.8,3-5.3,0.4-6.8c-0.9-0.5-2.3-0.2-2.7,0.7C712.9,108.7,713.2,109.7,714.1,110.3L714.1,110.3L714.1,110.3z"/>
		<path class="st1" d="M713.8,63.6c-5.9-3-11.9-6-17.8-9.1l-1,3.4c2.8-0.1,5.6,0.3,8.3,1c2.2,0.6,3.5-2.3,1.5-3.3
			c-11.6-6.1-25.4-7.3-38.4-4.9c-3.8,0.7-7.6,1.7-11.2,2.9c-1,0.3-1.7,1.2-1.4,2.2c0.3,0.9,1.4,1.6,2.5,1.3
			c11.8-4,24.9-5.4,37.1-2.1c3.3,0.9,6.5,2.1,9.4,3.7l1.5-3.3c-3-0.8-6.2-1.2-9.3-1.1c-1.9,0.1-2.8,2.5-1,3.4c5.9,3,11.9,6,17.8,9.1
			C714,67.9,716,64.7,713.8,63.6L713.8,63.6L713.8,63.6z"/>
		<path class="st1" d="M659.3,52.3c-1.6,0.1-3.3,0.5-4.7,1.2c-0.4,0.2-0.8,0.6-0.9,1.1s-0.1,1,0.2,1.4c0.3,0.4,0.7,0.7,1.2,0.8
			c0.5,0.1,1.1,0.1,1.5-0.2c0.3-0.2,0.6-0.3,1-0.4l-0.5,0.2c0.6-0.2,1.3-0.4,1.9-0.5l-0.5,0.1c0.3,0,0.5-0.1,0.8-0.1
			c0.5,0,1-0.2,1.4-0.5c0.3-0.3,0.6-0.8,0.6-1.3c0-0.4-0.2-1-0.6-1.3C660.3,52.5,659.8,52.3,659.3,52.3L659.3,52.3L659.3,52.3z"/>
		<path class="st0" d="M715,80.4c0,0,0-0.1,0.1-0.1l-0.3,0.4c0,0,0.1-0.1,0.1-0.1l-0.4,0.3c0,0,0.1-0.1,0.1-0.1l-0.5,0.2
			c0.1,0,0.1,0,0.2-0.1l-0.5,0.1c0.1,0,0.1,0,0.2,0l-0.5-0.1c0.1,0,0.1,0,0.2,0l-0.5-0.2c0,0,0.1,0,0.1,0.1l-0.4-0.3
			c0,0,0.1,0.1,0.1,0.1l0.4,0.3l0.5,0.2l0.5,0.1c0.3,0,0.5,0,0.8-0.2c0.2,0,0.3-0.1,0.4-0.2c0.2-0.1,0.3-0.2,0.4-0.3
			c0.1-0.1,0.2-0.2,0.3-0.4c0.1-0.2,0.2-0.4,0.2-0.7c0-0.3,0-0.6,0-0.9c0-0.2,0-0.5-0.2-0.7c-0.1-0.2-0.2-0.4-0.4-0.6
			c-0.2-0.2-0.4-0.3-0.6-0.4c-0.2-0.1-0.5-0.2-0.8-0.2l-0.5,0.1c-0.3,0.1-0.6,0.2-0.9,0.5l-0.3,0.4c-0.2,0.3-0.3,0.6-0.3,0.9
			c0,0.3,0,0.6,0,0.9l3.4-1.3c0,0,0,0-0.1-0.1c-0.1-0.1-0.3-0.2-0.5-0.3c-0.2-0.1-0.4-0.2-0.6-0.2c0,0-0.1,0-0.1,0
			c-0.2,0-0.4-0.1-0.6-0.1c-0.1,0-0.3,0-0.4,0s-0.3,0-0.4,0.1c-0.2,0.1-0.4,0.1-0.6,0.2c-0.2,0.1-0.3,0.2-0.5,0.3c0,0,0,0-0.1,0.1
			c-0.1,0.1-0.3,0.3-0.4,0.4c0,0,0,0.1,0,0.1c-0.1,0.2-0.2,0.4-0.2,0.7c-0.1,0.2,0,0.5,0,0.7c0.1,0.2,0.2,0.4,0.4,0.6
			c0.1,0.2,0.3,0.4,0.6,0.5l0.5,0.2c0.4,0.1,0.7,0.1,1.1,0l0.5-0.2C714.6,80.9,714.8,80.6,715,80.4L715,80.4L715,80.4z"/>
		<path class="st0" d="M713.8,81.1h0.6c0.3,0,0.5,0,0.8-0.2c0.2-0.1,0.5-0.2,0.6-0.4c0.2-0.2,0.3-0.4,0.4-0.6
			c0.1-0.2,0.2-0.4,0.2-0.7l-0.1-0.5c-0.1-0.3-0.3-0.6-0.5-0.8l-0.4-0.3c-0.3-0.2-0.6-0.2-1-0.2h-0.6c-0.3,0-0.5,0-0.8,0.2
			c-0.2,0.1-0.5,0.2-0.6,0.4c-0.2,0.2-0.3,0.4-0.4,0.6c-0.1,0.2-0.2,0.4-0.2,0.7l0.1,0.5c0.1,0.3,0.3,0.6,0.5,0.8l0.4,0.3
			C713.1,81,713.4,81.1,713.8,81.1L713.8,81.1z"/>
		<path class="st0" d="M713.7,80.8l0.6,0.2c0.3,0.1,0.5,0.1,0.8,0c0.3,0,0.5-0.1,0.7-0.2c0.2-0.1,0.4-0.3,0.6-0.5
			c0.2-0.2,0.3-0.4,0.4-0.6l0.1-0.5c0-0.3-0.1-0.6-0.3-0.9l-0.3-0.4c-0.2-0.2-0.5-0.4-0.9-0.5l-0.6-0.2c-0.3-0.1-0.5-0.1-0.8,0
			c-0.3,0-0.5,0.1-0.7,0.2c-0.2,0.1-0.4,0.3-0.6,0.5c-0.2,0.2-0.3,0.4-0.4,0.6l-0.1,0.5c0,0.3,0.1,0.6,0.3,0.9l0.3,0.4
			C713.1,80.6,713.4,80.7,713.7,80.8L713.7,80.8z"/>
		<path class="st1" d="M666,62.6c5.6,6,11.2,12,18.2,16.7c1.8,1.2,3.6,2.3,5.4,3.6c1.7,1.3,3.3,2.7,4.8,4.1c3.1,2.9,6.2,5.8,9.6,8.4
			c1.9,1.5,3.8,2.9,5.7,4.4c1.9,1.4,3.9,2.9,6.4,3.6c2.5,0.7,3.5-2.8,1.1-3.5c-1.9-0.5-3.4-1.8-4.9-2.9c-1.7-1.3-3.4-2.5-5-3.8
			c-3.3-2.6-6.4-5.3-9.4-8.2c-1.5-1.4-3-2.8-4.6-4c-1.7-1.4-3.6-2.6-5.5-3.8c-3.4-2.2-6.5-4.7-9.4-7.4c-3.3-3.1-6.4-6.4-9.5-9.8
			c-0.7-0.8-2.1-0.7-2.8,0C665.1,60.8,665.3,61.8,666,62.6L666,62.6L666,62.6z"/>
		<path class="st1" d="M700.7,57.5C700.5,57.4,700.5,57.4,700.7,57.5c0.1,0,0.2,0.1,0.3,0.1c0.2,0.1,0.4,0.2,0.6,0.3
			c0.4,0.2,0.8,0.4,1.2,0.6c0.8,0.4,1.5,0.9,2.3,1.3c0,0,0.2,0.1,0.2,0.2c0-0.1-0.3-0.2,0,0c0.2,0.1,0.3,0.3,0.5,0.4
			c0.3,0.3,0.7,0.5,1,0.8c0.7,0.6,1.3,1.2,1.9,1.8c0.7,0.7,2.1,0.7,2.8,0c0.8-0.8,0.7-1.8,0-2.6c-2.6-2.9-6-5-9.8-6.4
			c-0.4-0.2-1.1,0-1.5,0.2c-0.4,0.2-0.8,0.7-0.9,1.1c-0.1,0.5-0.1,1,0.2,1.4S700.2,57.3,700.7,57.5L700.7,57.5L700.7,57.5z"/>
		<path class="st1" d="M713,114c0,0.3-0.1,0.6-0.2,0.8c0,0.1-0.1,0.2-0.1,0.3c-0.2,0.5,0.1-0.2,0,0.1c-0.2,0.5-0.5,1-0.9,1.4
			c-0.1,0.1-0.2,0.2-0.3,0.3c-0.2,0.2,0.2-0.2,0,0c-0.2,0.2-0.4,0.4-0.6,0.7c-0.4,0.4-0.8,0.8-1.3,1.2c-1.8,1.6-3.8,3.1-5,5.2
			c-0.5,0.8-0.2,2,0.7,2.5c1,0.5,2.2,0.2,2.7-0.7c0.2-0.3,0.3-0.5,0.5-0.7c0.1-0.1,0.2-0.2,0.3-0.4c0.2-0.3-0.3,0.3,0.1-0.1
			c0.4-0.4,0.8-0.8,1.2-1.2c0.9-0.8,1.8-1.6,2.7-2.4c1.9-1.7,3.6-3.7,4-6.1c0.2-0.9-0.3-2-1.4-2.2C714.5,112.5,713.2,113,713,114
			L713,114L713,114z"/>
		<path class="st0" d="M723.7,128.7c2.6,0,2.6-3.6,0-3.6C721.1,125.1,721.1,128.7,723.7,128.7L723.7,128.7z"/>
		<path class="st0" d="M724,128.7c2.6,0,2.6-3.6,0-3.6C721.4,125.1,721.4,128.7,724,128.7L724,128.7z"/>
	</g>
	<g id="Layer_1-2">
		<path class="st2" d="M664.1,53.1c-7,2.3-12.9,5.2-10.5,5.2c1.1,0,1.4,0.6,1.4,2.5c0,1.3,0.5,3.4,1.2,4.5c0.7,1.1,1.2,2.9,1.3,3.9
			c0.1,1.4,0.2,1.5,0.5,0.5c0.3-1.1,2.2,0.2,9.4,6.5c4.9,4.3,12.7,10.8,17.3,14.4c10.5,8.2,23.3,19.2,23.3,20c0,1.5-8-4.1-19.2-13.4
			c-11.8-9.7-22.2-17.8-20.3-15.7c1.2,1.4,0,8.7-1.6,9.5c-0.6,0.3-1.4,1.6-1.6,2.9c-0.4,1.9-1.3,2.7-4.3,4.2
			c-4.4,2.1-5.9,4.4-8.4,13.1c-3,10.4-5.8,10.5-12,0.7c-1.4-2.2-2.3-3.3-2-2.5c14.7,41.8,82.5,28.3,82.4-16.3
			c0-18.4-3-24.5-16.6-34.6C694.6,51.3,677.1,48.9,664.1,53.1 M671.3,59.8c-6.7,1.4-6.5,2.2,3.7,11c25.7,22,41.1,33.5,42.1,31.2
			c1.1-2.6,0.9-21.8-0.3-22.8c-0.9-0.8-1-0.8-0.5,0.1c0.4,0.7,0.3,0.8-0.3,0.5c-0.5-0.3-0.8-0.7-0.5-0.9c2.5-2.2-7.9-12.4-15.1-14.8
			c-2.7-0.9-6.5-2.3-8.5-3.1C687.8,59.2,676.9,58.6,671.3,59.8"/>
		<path class="st3" d="M664.9,36.3c-51,10.6-65.8,71.1-24.2,99.1c21.9,14.8,44.7,16.2,66.2,4c3.4-1.9,9.1,0.7,16.9,8
			c6.5,6,12.5,11.1,13.5,11.4c6.3,1.8,14.3-5.6,12.6-11.7c-1-3.5-22.7-22.6-24.6-21.5c-1.3,0.7-0.7-1.7,0.6-2.7
			c0.7-0.5,2.4-3,3.6-5.3s3-5.3,3.8-6.5C756.3,78.6,709.1,27.1,664.9,36.3 M663.7,51.6c-6.2,1.9-18.4,8-18.4,9.1
			c0,0.3-1.3,1.9-2.8,3.5c-2.8,2.8-6.8,10.4-6.8,12.9c0,1-0.2,1.1-0.7,0.3c-0.5-0.8-0.8-0.7-1.2,0.3c-0.3,0.7-0.2,1.5,0.1,1.9
			c0.4,0.3,0.4,2.8,0,5.5c-4.7,34.4,34.4,59.1,66.7,42.2c14.6-7.6,19.5-16.6,19.4-35.5c0-18.4-3-24.5-16.6-34.6
			C693.9,50.2,676.2,47.7,663.7,51.6 M671.2,59.3c-6.7,1.4-6.5,2.2,3.7,11c25.7,22,41.1,33.5,42.1,31.2c1.1-2.6,0.9-21.8-0.3-22.8
			c-0.9-0.8-1-0.8-0.5,0.1c0.4,0.7,0.3,0.8-0.3,0.5c-0.5-0.3-0.8-0.7-0.5-0.9c2.5-2.2-7.9-12.4-15.1-14.8c-2.7-0.9-6.5-2.3-8.5-3.1
			C687.6,58.7,676.8,58.1,671.2,59.3 M658.5,70.3c0,2.1,6,7.5,28.8,26c12.9,10.5,20.9,16.1,20.9,14.6c0-0.8-12.8-11.9-23.3-20
			c-4.6-3.6-12.4-10.1-17.4-14.5C659.7,69.6,658.5,68.8,658.5,70.3"/>
		<path class="st1" d="M711.1,118.1c2.6,0,2.6-3.6,0-3.6S708.5,118.1,711.1,118.1L711.1,118.1z"/>
	</g>
	<g id="Layer_3">
		<path class="st0" d="M712.8,80.2l0.5,0.4c0.2,0.2,0.4,0.3,0.6,0.4c0.2,0.1,0.5,0.2,0.8,0.2c0.3,0,0.5,0,0.8-0.2
			c0.2-0.1,0.5-0.2,0.6-0.4l0.3-0.4c0.2-0.3,0.3-0.6,0.3-0.9l-0.1-0.5c-0.1-0.3-0.3-0.6-0.5-0.8l-0.5-0.4c-0.2-0.2-0.4-0.3-0.6-0.4
			c-0.2-0.1-0.5-0.2-0.8-0.2c-0.3,0-0.5,0-0.8,0.2c-0.2,0.1-0.5,0.2-0.6,0.4l-0.3,0.4c-0.2,0.3-0.3,0.6-0.3,0.9l0.1,0.5
			C712.3,79.7,712.5,80,712.8,80.2L712.8,80.2z"/>
		<path class="st0" d="M714.2,80.6c2.6,0,2.6-3.6,0-3.6C711.6,76.9,711.6,80.6,714.2,80.6L714.2,80.6z"/>
		<path class="st0" d="M714.6,80.6c2.6,0,2.6-3.6,0-3.6S712,80.6,714.6,80.6L714.6,80.6z"/>
	</g>
</g>
<g id="Layer_3_00000160889073331341054410000005686516964474958720_">
	<path class="st3" d="M323.1,77.7c0,32.4,2.7,48.5,8,48.5c5.3,0,8-7.1,8-21.2c0-23.9,0.4-25.3,7.5-29.7c13-8.1,19.5,2.1,19.5,30.4
		c0,13.8,2.8,20.5,8.2,20.3c13.1-0.5,12.7-47.7-0.5-60.9c-8-8-23.1-8.6-30.9-1.2c-3.3,3.1-4.1,1.9-3.3-4.6
		c2.5-18.8-0.8-28.6-9.8-29.5C325.4,29.4,323.1,45.3,323.1,77.7"/>
	<path class="st3" d="M481.1,58.2c-10.9,1.9-18.6,7.5-17,12.3c2.6,7.8,4,8.4,11.1,4.9c6.9-3.4,11.2-3.9,16.3-1.8
		c8.7,3.6,12.8,14.6,4.9,12.9c-27.6-5.9-46.9,13.5-32.6,32.9c6.9,9.3,24.5,10.7,33.1,2.7c2.5-2.4,5.3-1.2,5.3,2.2
		c0,2.4,2.4,3,8.9,2.2c5.3-0.7,7.5-23.9,4.5-47.2C513.6,64.7,498.1,55.2,481.1,58.2"/>
	<path class="st3" d="M30.6,60.6c-18,8.7-18.6,30-1.1,36.5c2.8,1,8.6,2.9,13.1,4.1c9.2,2.6,11,3.8,10.1,7.3
		c-1.6,6.4-10,6.5-22.9,0.1c-11.9-5.9-19,4.3-8,11.4c12.7,8.2,30.4,9,39.2,1.8c3.9-3.2,9.4-18.8,7.1-20.2c-0.6-0.3-1-1.4-1-2.4
		c0-3.9-6.2-7.9-18.7-12.2c-13.3-4.6-16.2-6.5-14.4-9.9c2.8-5.2,8.9-6.2,16-2.6c6.7,3.4,7.6,3.2,12.6-2.2
		C72.1,62.5,46.5,52.9,30.6,60.6"/>
	<path class="st3" d="M93.6,60.3c-38.9,15-15.4,79.1,23.8,65c5.9-2.1,8.1-3.5,15.1-9.3c4.9-4-5.5-12-10.8-8.4
		c-10.6,7.2-31.6,3-31.6-6.3c0-0.5-0.3-1.6-0.6-2.5c-0.6-1.5,0.2-1.6,7.9-0.9c7.4,0.6,30.6-0.7,37.4-2.1c2.1-0.4,2.2-1,2.2-7.2
		C137.1,67.1,114.3,52.3,93.6,60.3"/>
	<path class="st3" d="M158.8,60.6c-9.9,3.4-11.5,5.2-8.8,10.2c4,7.6,4.1,7.6,9.6,4.8c10.1-5.1,23.1-1.3,23.8,6.9
		c0.1,1.7-3.1,2.7-9.8,3c-15.9,0.7-25.1,5.1-29.9,14.3c-8.7,16.9,22.1,35.5,37.4,22.6c3.5-2.9,6-2.5,6,1.1c0,2.6,8.6,3.9,11.5,1.8
		c1.9-1.4,0.3-50.2-1.8-54C190.1,59,175.6,54.9,158.8,60.6"/>
	<path class="st3" d="M212.3,58.9c-2.1,0.4-2.3,0.8-1.7,3.6c0.4,1.7,0.9,16.4,1.1,32.7c0.4,33.3-0.1,31.8,10.6,30.5
		c5.6-0.7,6-2.1,6.3-25.6c0.2-18.9,3.6-24.7,14.2-24.9c7-0.1,10.3-4.2,10.3-12.6c0.1-7.3-14.7-4.5-21,4c-1.9,2.6-3,3.5-3,2.4
		c0-0.9-0.5-1.7-1.1-1.7c-0.7,0-0.9-1.3-0.4-3.9C228.4,58.4,223,56.9,212.3,58.9"/>
	<path class="st3" d="M278.5,60c-36,12.9-27.4,66.2,10.7,66.6c11.6,0.1,27-7.4,27-13.2c0-2.5-9.1-8.7-10.8-7.4
		c-10.8,7.9-22.3,6.7-30.1-3.2c-13.7-17.3,4.5-36.4,25.1-26.3c8,3.9,15.9,0.6,15.9-6.6S290.6,55.7,278.5,60"/>
	<path class="st3" d="M418,60.1c-19.5,6.4-31.5,30.2-22.8,45.1c10.6,18.3,26.5,25.4,43.9,19.6c5.2-1.7,13.8-9.2,14-12.1
		c0.1-2.3-8.7-8.5-9.9-7c-4.6,5.5-17.6,7.2-24.5,3.1c-23.9-14-5.1-43.7,19.9-31.4c4.3,2.1,7.3,2.2,8.9,0.2c1.4-1.6,3.6-3.6,5.1-4.3
		c3.6-1.9,3.3-3.2-1.6-6.8C439.5,58.4,429.1,56.4,418,60.1"/>
	<path class="st3" d="M555.6,59.6c-1.7,0.7-3.9,2.3-4.9,3.5c-3,3.4-5.9,2.9-5.1-0.9c0.4-2-2.4-3-8.5-3c-6.8,0-9,0.3-8.4,1.2
		c0.4,0.7,0.6,21.8,0.5,47c-0.1,30.6,2.5,45.7,8.1,45.5c5.5-0.2,8.2-5.4,8-15.5c-0.3-16.9-0.1-17.4,5.7-13.1
		c13,9.6,37.3-0.4,43.1-17.7C603.3,79.2,578.8,49.4,555.6,59.6"/>
	<path class="st4" d="M95.7,76.8c-12,6.9-9.5,9.4,9.5,9.4c17.1,0,17,0,14.4-4.4C116,75.6,102.7,72.8,95.7,76.8"/>
	<path class="st4" d="M553,75.2c-12.8,7-11.5,29.1,2.2,36.1c14.7,7.5,30-11.3,22-27C572.7,75.6,560.6,71,553,75.2"/>
	<path class="st4" d="M166.3,98.3c-9.6,1.8-11.1,10-2.7,14.2c6.9,3.5,20.5-3.6,20.5-10.6C184.1,97.5,177.8,96.2,166.3,98.3"/>
	<path class="st4" d="M479.5,99.2c-8.6,3.9-7.7,10.9,1.8,14c10,3.2,23.5-8.1,17.2-14.4C496.3,96.5,484.9,96.7,479.5,99.2"/>
</g>
</svg>
